<?xml version="1.0" encoding="utf-8"?>
<!-- Generator: Adobe Illustrator 27.2.0, SVG Export Plug-In . SVG Version: 6.00 Build 0)  -->
<svg version="1.1" id="Layer_1" xmlns="http://www.w3.org/2000/svg" xmlns:xlink="http://www.w3.org/1999/xlink" x="0px" y="0px"
	 viewBox="0 0 24 24" style="enable-background:new 0 0 24 24;" xml:space="preserve">
<path d="M22.96,5.98l-1.57-4.71h0c-0.05-0.16-0.15-0.29-0.29-0.39c-0.13-0.1-0.29-0.15-0.46-0.15H3.36c-0.17,0-0.33,0.05-0.46,0.15
	c-0.13,0.1-0.23,0.23-0.29,0.39L1.04,5.98h0C1.02,6.05,1,6.13,1,6.2v0.02v0.79c0,1.23,0.58,2.39,1.57,3.13v0.02v10.21
	c0,0.63,0.25,1.22,0.69,1.67c0.44,0.44,1.04,0.69,1.67,0.69h14.14c0.63,0,1.22-0.25,1.67-0.69c0.44-0.44,0.69-1.04,0.69-1.67V10.15
	v-0.02C22.42,9.4,23,8.24,23,7.01V6.23V6.2C23,6.13,22.98,6.05,22.96,5.98L22.96,5.98z M21.12,5.44H17.5V2.3h2.58L21.12,5.44z
	 M12.79,5.44V2.3h3.14l0,3.14H12.79z M8.07,5.44V2.3h3.14l0,3.14H8.07z M3.92,2.3H6.5v3.14H2.88L3.92,2.3z M10.43,21.15v-6.29h3.14
	v6.29H10.43z M19.86,20.37c0,0.21-0.08,0.41-0.23,0.56c-0.15,0.15-0.35,0.23-0.56,0.23h-3.93v-7.07c0-0.21-0.08-0.41-0.23-0.56
	c-0.15-0.15-0.35-0.23-0.56-0.23H9.64c-0.21,0-0.41,0.08-0.56,0.23c-0.15,0.15-0.23,0.35-0.23,0.56v7.07H4.93
	c-0.21,0-0.41-0.08-0.56-0.23c-0.15-0.15-0.23-0.35-0.23-0.56v-9.51c1.1,0.23,2.25-0.04,3.14-0.72c0.68,0.5,1.51,0.77,2.36,0.77
	s1.67-0.27,2.36-0.77c0.68,0.5,1.51,0.77,2.36,0.77c0.85,0,1.67-0.27,2.36-0.77c0.89,0.68,2.04,0.95,3.14,0.72L19.86,20.37z
	 M19.07,9.37c-0.68,0-1.32-0.3-1.77-0.82c-0.15-0.17-0.36-0.27-0.59-0.27s-0.44,0.1-0.59,0.27c-0.45,0.5-1.09,0.79-1.77,0.79
	c-0.67,0-1.32-0.29-1.77-0.79C12.44,8.39,12.22,8.3,12,8.3c-0.22,0-0.44,0.09-0.59,0.26c-0.45,0.5-1.09,0.79-1.77,0.79
	S8.33,9.05,7.88,8.55C7.72,8.39,7.51,8.3,7.29,8.3c-0.22,0-0.44,0.09-0.59,0.26C6.25,9.07,5.61,9.37,4.93,9.37
	c-0.63,0-1.22-0.25-1.67-0.69C2.82,8.24,2.57,7.64,2.57,7.01h18.86c0,0.63-0.25,1.22-0.69,1.67C20.3,9.12,19.7,9.37,19.07,9.37z"/>
</svg>
